<svg xmlns="http://www.w3.org/2000/svg" viewBox="0 0 64 64" role="img" aria-label="SM">
  <rect width="64" height="64" rx="12" fill="#14201f"/>
  <path fill="#ffffff" d="M18.5 39.8c-3.9 0-6.9-1.5-9-4.4l4.2-3.5c1.4 1.8 3 2.7 4.9 2.7 1.6 0 2.5-.6 2.5-1.7 0-.6-.3-1.1-.9-1.4-.6-.4-1.8-.8-3.6-1.3-2.2-.6-3.8-1.4-4.9-2.4-1.1-1.1-1.7-2.5-1.7-4.4 0-2.1.8-3.8 2.5-5 1.7-1.3 3.8-1.9 6.2-1.9 3.4 0 6.1 1.2 8 3.6l-3.9 3.6c-1.2-1.4-2.6-2.1-4.3-2.1-1.4 0-2.1.5-2.1 1.5 0 .6.3 1 .8 1.3.6.3 1.7.7 3.4 1.2 2.4.7 4.2 1.6 5.3 2.7 1.2 1.1 1.8 2.7 1.8 4.6 0 2.1-.8 3.8-2.5 5.1-1.7 1.3-3.9 2-6.7 2Zm13.2-.4V16.9h6.4l5.5 9.1 5.5-9.1h6.4v22.5h-6.2V26.7l-5.7 9.2h-.1l-5.7-9.1v12.6h-6.1Z"/>
</svg>
